<svg width="63" height="63" viewBox="0 0 63 63" fill="none" xmlns="http://www.w3.org/2000/svg">
<g clip-path="url(#clip0_647_6186)">
<path d="M54.4906 31.8416C54.4912 37.9275 52.095 43.7688 47.8209 48.1012C43.5467 52.4337 37.7383 54.9086 31.6529 54.9904H31.3419C25.4299 55.0051 19.7392 52.7427 15.4512 48.6727C15.2671 48.4985 15.119 48.2898 15.0156 48.0584C14.9121 47.827 14.8552 47.5776 14.8482 47.3242C14.8411 47.0708 14.884 46.8186 14.9745 46.5818C15.0649 46.345 15.2011 46.1284 15.3753 45.9443C15.5494 45.7601 15.7581 45.6121 15.9895 45.5086C16.2209 45.4052 16.4704 45.3483 16.7237 45.3412C16.9771 45.3342 17.2294 45.3771 17.4661 45.4675C17.7029 45.558 17.9195 45.6941 18.1037 45.8683C20.8617 48.4694 24.3251 50.2001 28.0611 50.8443C31.7971 51.4885 35.6401 51.0176 39.11 49.4903C42.5798 47.9631 45.5228 45.4474 47.5712 42.2573C49.6196 39.0672 50.6827 35.3443 50.6275 31.5536C50.5724 27.7628 49.4015 24.0724 47.2611 20.9433C45.1208 17.8142 42.1059 15.3851 38.593 13.9594C35.0801 12.5338 31.2251 12.1749 27.5094 12.9275C23.7938 13.6801 20.3822 15.5109 17.701 18.1911C17.6813 18.2124 17.6604 18.2325 17.6383 18.2514L15.0968 20.5783L19.196 24.6776C19.4698 24.9463 19.6573 25.2905 19.7345 25.6663C19.8117 26.0421 19.7751 26.4323 19.6294 26.7872C19.4836 27.1421 19.2354 27.4455 18.9164 27.6586C18.5974 27.8716 18.2221 27.9848 17.8384 27.9835H6.26406C5.75244 27.9835 5.26177 27.7803 4.9 27.4185C4.53823 27.0567 4.33499 26.566 4.33499 26.0544V14.4801C4.33277 14.0975 4.44436 13.7229 4.65557 13.4039C4.86678 13.0849 5.16808 12.8359 5.52115 12.6886C5.87423 12.5412 6.26314 12.5022 6.63844 12.5765C7.01375 12.6507 7.3585 12.8349 7.62887 13.1056L12.3671 17.8559L15.0051 15.4446C18.2459 12.2164 22.3704 10.0207 26.8581 9.13469C31.3457 8.24868 35.9952 8.71207 40.2197 10.4664C44.4442 12.2207 48.0543 15.1872 50.5942 18.9915C53.1341 22.7958 54.4899 27.2674 54.4906 31.8416Z" fill="white"/>
<path d="M31.3872 20.3125C29.2888 20.3125 27.2375 20.9348 25.4927 22.1006C23.7479 23.2664 22.388 24.9234 21.585 26.8621C20.7819 28.8008 20.5718 30.9341 20.9812 32.9922C21.3906 35.0503 22.4011 36.9408 23.8849 38.4246C25.3687 39.9084 27.2592 40.9189 29.3173 41.3283C31.3754 41.7377 33.5087 41.5276 35.4474 40.7246C37.3861 39.9215 39.0431 38.5616 40.209 36.8169C41.3748 35.0721 41.997 33.0208 41.997 30.9223C41.9941 28.1093 40.8753 25.4124 38.8862 23.4233C36.8971 21.4342 34.2002 20.3155 31.3872 20.3125ZM33.0195 36.6353H32.2033V37.4515C32.2033 37.6679 32.1173 37.8755 31.9643 38.0286C31.8112 38.1816 31.6036 38.2676 31.3872 38.2676C31.1707 38.2676 30.9631 38.1816 30.8101 38.0286C30.657 37.8755 30.571 37.6679 30.571 37.4515V36.6353H29.7549C28.8891 36.6353 28.0587 36.2914 27.4465 35.6792C26.8343 35.0669 26.4903 34.2366 26.4903 33.3708C26.4903 33.1543 26.5763 32.9467 26.7294 32.7937C26.8824 32.6406 27.09 32.5546 27.3065 32.5546C27.5229 32.5546 27.7305 32.6406 27.8836 32.7937C28.0366 32.9467 28.1226 33.1543 28.1226 33.3708C28.1226 33.8037 28.2946 34.2189 28.6007 34.525C28.9068 34.8311 29.322 35.003 29.7549 35.003H33.0195C33.4524 35.003 33.8676 34.8311 34.1737 34.525C34.4798 34.2189 34.6518 33.8037 34.6518 33.3708C34.6518 32.9379 34.4798 32.5227 34.1737 32.2166C33.8676 31.9105 33.4524 31.7385 33.0195 31.7385H30.163C29.2972 31.7385 28.4668 31.3945 27.8546 30.7823C27.2424 30.1701 26.8984 29.3397 26.8984 28.4739C26.8984 27.6081 27.2424 26.7777 27.8546 26.1655C28.4668 25.5533 29.2972 25.2093 30.163 25.2093H30.571V24.3932C30.571 24.1768 30.657 23.9692 30.8101 23.8161C30.9631 23.6631 31.1707 23.5771 31.3872 23.5771C31.6036 23.5771 31.8112 23.6631 31.9643 23.8161C32.1173 23.9692 32.2033 24.1768 32.2033 24.3932V25.2093H32.6114C33.4772 25.2093 34.3076 25.5533 34.9198 26.1655C35.532 26.7777 35.876 27.6081 35.876 28.4739C35.876 28.6904 35.79 28.898 35.6369 29.051C35.4839 29.2041 35.2763 29.2901 35.0598 29.2901C34.8434 29.2901 34.6358 29.2041 34.4827 29.051C34.3297 28.898 34.2437 28.6904 34.2437 28.4739C34.2437 28.041 34.0717 27.6258 33.7656 27.3197C33.4595 27.0136 33.0443 26.8416 32.6114 26.8416H30.163C29.7301 26.8416 29.3149 27.0136 29.0088 27.3197C28.7027 27.6258 28.5307 28.041 28.5307 28.4739C28.5307 28.9068 28.7027 29.322 29.0088 29.6281C29.3149 29.9342 29.7301 30.1062 30.163 30.1062H33.0195C33.8853 30.1062 34.7156 30.4501 35.3279 31.0624C35.9401 31.6746 36.284 32.5049 36.284 33.3708C36.284 34.2366 35.9401 35.0669 35.3279 35.6792C34.7156 36.2914 33.8853 36.6353 33.0195 36.6353Z" fill="white"/>
</g>
<defs>
<clipPath id="clip0_647_6186">
<rect width="61.73" height="61.73" fill="white" transform="translate(0.476562 0.976562)"/>
</clipPath>
</defs>
</svg>
