<svg width="151" height="148" viewBox="0 0 151 148" fill="none" xmlns="http://www.w3.org/2000/svg">
<g clip-path="url(#clip0_647_3524)">
<path d="M75.5 132.125C106.773 132.125 132.125 106.773 132.125 75.5C132.125 44.2269 106.773 18.875 75.5 18.875C44.2269 18.875 18.875 44.2269 18.875 75.5C18.875 106.773 44.2269 132.125 75.5 132.125Z" stroke="#80D741" stroke-width="2" stroke-linecap="round" stroke-linejoin="round"/>
<path d="M108.782 121.32L103.261 115.793C102.669 115.199 101.93 114.773 101.12 114.56L88.4794 111.239C87.3568 110.944 86.3825 110.245 85.7426 109.277C85.1028 108.308 84.8423 107.138 85.0111 105.99L86.4149 96.4341C86.5342 95.6275 86.8604 94.8656 87.3617 94.2226C87.8631 93.5797 88.5225 93.0776 89.2757 92.7653L107.236 85.2979C108.066 84.9534 108.977 84.8532 109.863 85.0089C110.748 85.1646 111.57 85.5697 112.232 86.1767L126.819 99.5131" stroke="#80D741" stroke-width="2" stroke-linecap="round" stroke-linejoin="round"/>
<path d="M29.7812 108.915L35.6325 105.069C36.2805 104.641 36.8128 104.059 37.1822 103.376C37.5516 102.693 37.7467 101.929 37.75 101.152L37.8739 79.7823C37.8803 78.8561 38.1571 77.9521 38.6702 77.1811L51.0215 58.7189C51.3757 58.1932 51.8322 57.7442 52.3638 57.3988C52.8954 57.0534 53.4911 56.8186 54.1154 56.7085C54.7397 56.5984 55.3798 56.6152 55.9974 56.7579C56.6151 56.9007 57.1977 57.1664 57.7103 57.5393L69.3952 65.2072C70.379 65.9159 71.5965 66.2219 72.7986 66.0625L91.355 63.5498C92.5007 63.3962 93.5502 62.8274 94.3043 61.9513L107.387 46.7156C108.122 45.8625 108.528 44.7746 108.531 43.6484V29.4922" stroke="#80D741" stroke-width="2" stroke-linecap="round" stroke-linejoin="round"/>
</g>
<defs>
<clipPath id="clip0_647_3524">
<rect width="151" height="148" fill="white"/>
</clipPath>
</defs>
</svg>
