<svg width="29" height="29" viewBox="0 0 29 29" fill="none" xmlns="http://www.w3.org/2000/svg">
<g clip-path="url(#clip0_1199_503)">
<path d="M14.5 2.71875C12.1699 2.71875 9.89211 3.40971 7.95469 4.70425C6.01728 5.99879 4.50724 7.83877 3.61555 9.99151C2.72385 12.1443 2.49055 14.5131 2.94513 16.7984C3.39971 19.0837 4.52177 21.183 6.1694 22.8306C7.81704 24.4782 9.91626 25.6003 12.2016 26.0549C14.4869 26.5095 16.8558 26.2761 19.0085 25.3845C21.1612 24.4928 23.0012 22.9827 24.2958 21.0453C25.5903 19.1079 26.2813 16.8301 26.2813 14.5C26.278 11.3764 25.0357 8.38174 22.827 6.17304C20.6183 3.96434 17.6236 2.72205 14.5 2.71875ZM14.5 24.4687C12.5284 24.4687 10.601 23.8841 8.96166 22.7887C7.32231 21.6933 6.04459 20.1364 5.29008 18.3149C4.53557 16.4933 4.33816 14.4889 4.7228 12.5552C5.10745 10.6214 6.05688 8.84518 7.45103 7.45103C8.84519 6.05687 10.6215 5.10744 12.5552 4.7228C14.4889 4.33815 16.4933 4.53556 18.3149 5.29008C20.1364 6.04459 21.6933 7.32231 22.7887 8.96166C23.8841 10.601 24.4688 12.5284 24.4688 14.5C24.4658 17.143 23.4145 19.6768 21.5457 21.5457C19.6768 23.4145 17.143 24.4657 14.5 24.4687ZM20.8438 14.5C20.8438 15.7547 20.4717 16.9812 19.7746 18.0244C19.0776 19.0676 18.0868 19.8807 16.9277 20.3609C15.7685 20.841 14.493 20.9666 13.2624 20.7219C12.0318 20.4771 10.9015 19.8729 10.0143 18.9857C9.12711 18.0985 8.52292 16.9682 8.27815 15.7376C8.03337 14.507 8.159 13.2315 8.63914 12.0724C9.11929 10.9132 9.93238 9.92242 10.9756 9.22536C12.0188 8.5283 13.2453 8.15625 14.5 8.15625C16.1819 8.15805 17.7944 8.82698 18.9837 10.0163C20.173 11.2056 20.842 12.8181 20.8438 14.5Z" fill="white"/>
</g>
<defs>
<clipPath id="clip0_1199_503">
<rect width="29" height="29" fill="white"/>
</clipPath>
</defs>
</svg>
