<svg width="63" height="63" viewBox="0 0 63 63" fill="none" xmlns="http://www.w3.org/2000/svg">
<g id="ShieldCheck" clip-path="url(#clip0_647_6193)">
<path id="Vector" d="M50.5613 10.3389H11.9784C10.9551 10.3389 9.97376 10.7454 9.25018 11.4689C8.52661 12.1925 8.12012 13.1739 8.12012 14.1972V27.7012C8.12012 40.4143 14.2741 48.1188 19.437 52.3436C24.9977 56.8916 30.5296 58.4349 30.7707 58.5C31.1023 58.5902 31.4519 58.5902 31.7835 58.5C32.0247 58.4349 37.5492 56.8916 43.1172 52.3436C48.2657 48.1188 54.4196 40.4143 54.4196 27.7012V14.1972C54.4196 13.1739 54.0131 12.1925 53.2896 11.4689C52.566 10.7454 51.5846 10.3389 50.5613 10.3389ZM42.2853 27.1369L28.7813 40.6409C28.6021 40.8203 28.3893 40.9626 28.1552 41.0597C27.921 41.1568 27.6699 41.2067 27.4164 41.2067C27.1629 41.2067 26.9118 41.1568 26.6777 41.0597C26.4435 40.9626 26.2307 40.8203 26.0515 40.6409L20.2641 34.8535C19.9021 34.4915 19.6987 34.0005 19.6987 33.4886C19.6987 32.9767 19.9021 32.4857 20.2641 32.1238C20.6261 31.7618 21.117 31.5584 21.629 31.5584C22.1409 31.5584 22.6318 31.7618 22.9938 32.1238L27.4116 36.5487L39.5507 24.4072C39.73 24.2279 39.9428 24.0858 40.1769 23.9887C40.4111 23.8917 40.6621 23.8418 40.9156 23.8418C41.1691 23.8418 41.4201 23.8917 41.6543 23.9887C41.8885 24.0858 42.1012 24.2279 42.2805 24.4072C42.4597 24.5864 42.6019 24.7992 42.6989 25.0334C42.7959 25.2676 42.8458 25.5186 42.8458 25.772C42.8458 26.0255 42.7959 26.2765 42.6989 26.5107C42.6019 26.7449 42.4597 26.9577 42.2805 27.1369H42.2853Z" fill="white"/>
</g>
<defs>
<clipPath id="clip0_647_6193">
<rect width="61.7327" height="61.7327" fill="white" transform="translate(0.404297 0.693359)"/>
</clipPath>
</defs>
</svg>
